# xmcd CD database file
#
# Track frame offsets:
#	182
#	24040
#	48062
#	73382
#	87175
#	104405
#	122612
#	146935
#	159070
#	178260
#
# Disc length: 2570 seconds
#
# Revision: 0
# Processed by: cddbd v1.5.1PL2 Copyright (c) Steve Scherf et al.
# Submitted via: Feurio! 1.68 - http://www.feurio.com
#
DISCID=7f0a080a
DTITLE=Blues Shouter - Blues
DYEAR=1900
DGENRE=Blues
TTITLE0=Doctor Doctor
TTITLE1=One Big Hurt
TTITLE2=Drown In My Own Tears
TTITLE3=Built For Comfort Not For Speed
TTITLE4=Sugar Man
TTITLE5=It Hurts Me Too
TTITLE6=Jack Of Diamonds
TTITLE7=10 "
TTITLE8=Long John Blues
TTITLE9=I Can't Get My Red Meat
EXTD=
EXTT0=
EXTT1=
EXTT2=
EXTT3=
EXTT4=
EXTT5=
EXTT6=
EXTT7=
EXTT8=
EXTT9=
PLAYORDER=
